<svg xmlns="http://www.w3.org/2000/svg" xmlns:xlink="http://www.w3.org/1999/xlink" viewBox="0 0 286.8 55.27"><defs><style>.cls-1{fill:url(#Dégradé_sans_nom_55);}.cls-2{fill:url(#Dégradé_sans_nom_55-2);}.cls-3{fill:url(#Dégradé_sans_nom_55-3);}.cls-4{fill:url(#Dégradé_sans_nom_55-4);}.cls-5{fill:url(#Dégradé_sans_nom_55-5);}.cls-6{fill:url(#Dégradé_sans_nom_55-6);}.cls-7{fill:url(#Dégradé_sans_nom_55-7);}.cls-8{fill:url(#Dégradé_sans_nom_55-8);}.cls-9{fill:url(#Dégradé_sans_nom_55-9);}.cls-10{fill:url(#Dégradé_sans_nom_55-10);}.cls-11{fill:url(#Dégradé_sans_nom_19);}</style><linearGradient id="Dégradé_sans_nom_55" y1="29.72" x2="44.37" y2="29.72" gradientUnits="userSpaceOnUse"><stop offset="0" stop-color="#f6a75b"/><stop offset="0.99" stop-color="#e27b2a"/></linearGradient><linearGradient id="Dégradé_sans_nom_55-2" x1="48.76" y1="30.27" x2="58.54" y2="30.27" xlink:href="#Dégradé_sans_nom_55"/><linearGradient id="Dégradé_sans_nom_55-3" x1="63.74" y1="37.86" x2="92.18" y2="37.86" xlink:href="#Dégradé_sans_nom_55"/><linearGradient id="Dégradé_sans_nom_55-4" x1="131.35" y1="37.86" x2="163.45" y2="37.86" xlink:href="#Dégradé_sans_nom_55"/><linearGradient id="Dégradé_sans_nom_55-5" x1="167.07" y1="29.72" x2="199.59" y2="29.72" xlink:href="#Dégradé_sans_nom_55"/><linearGradient id="Dégradé_sans_nom_55-6" x1="205.22" y1="37.97" x2="223.43" y2="37.97" xlink:href="#Dégradé_sans_nom_55"/><linearGradient id="Dégradé_sans_nom_55-7" x1="230" y1="30.27" x2="239.77" y2="30.27" xlink:href="#Dégradé_sans_nom_55"/><linearGradient id="Dégradé_sans_nom_55-8" x1="243.88" y1="33.82" x2="269.58" y2="33.82" xlink:href="#Dégradé_sans_nom_55"/><linearGradient id="Dégradé_sans_nom_55-9" x1="277.02" y1="27.63" x2="286.8" y2="27.63" xlink:href="#Dégradé_sans_nom_55"/><linearGradient id="Dégradé_sans_nom_55-10" x1="97.21" y1="29.72" x2="131.35" y2="29.72" xlink:href="#Dégradé_sans_nom_55"/><linearGradient id="Dégradé_sans_nom_19" x1="59.38" y1="25.55" x2="114.26" y2="25.55" gradientTransform="translate(32.63 2.11) rotate(-1.27)" gradientUnits="userSpaceOnUse"><stop offset="0" stop-color="#72bb71"/><stop offset="1" stop-color="#367721"/></linearGradient></defs><title>Fichier 2</title><g id="Calque_2" data-name="Calque 2"><g id="Calque_1-2" data-name="Calque 1"><path class="cls-1" d="M44.37,5.17v7.42H26.93v41.7H17.44V12.59H0V5.17Z"/><path class="cls-2" d="M53.65,6.26A4.7,4.7,0,0,1,57.1,7.7a4.7,4.7,0,0,1,1.44,3.45,4.83,4.83,0,0,1-1.42,3.43,4.72,4.72,0,0,1-6.89,0,4.77,4.77,0,0,1-1.46-3.43,4.63,4.63,0,0,1,1.48-3.46A4.77,4.77,0,0,1,53.65,6.26ZM58,21.45V54.28H49.33V21.45Z"/><path class="cls-3" d="M81.21,20.81A23.77,23.77,0,0,1,91.58,23v7.35a17.47,17.47,0,0,0-8.72-2.67A9.57,9.57,0,0,0,72.81,37.93a10,10,0,0,0,2.83,7.42,10.23,10.23,0,0,0,7.54,2.81,24.4,24.4,0,0,0,9-2.32v7a27.65,27.65,0,0,1-10.51,2.07q-8,0-13-4.57t-5-12.13q0-7.84,4.87-12.62A17.22,17.22,0,0,1,81.21,20.81Z"/><path class="cls-4" d="M147.77,20.81q7.24,0,11.46,4.64t4.22,12.83v1.3H140.21a10.12,10.12,0,0,0,3.29,6.77,11.24,11.24,0,0,0,7.58,2.37,16.86,16.86,0,0,0,6-1.07A26.05,26.05,0,0,0,163,44.4v6.43a23.61,23.61,0,0,1-14,4.08q-7.77,0-12.69-4.68t-4.92-12.45a16.94,16.94,0,0,1,4.55-12.23A15.7,15.7,0,0,1,147.77,20.81Zm7.56,13.54a9.5,9.5,0,0,0-2.18-5.61,6.44,6.44,0,0,0-5-2,7.21,7.21,0,0,0-5.26,1.93,9.54,9.54,0,0,0-2.51,5.7Z"/><path class="cls-5" d="M191,22.18v-17h8.61V54.28H184.4q-7.87,0-12.6-4.54t-4.73-12.37a16.54,16.54,0,0,1,2.2-8.44,15.8,15.8,0,0,1,6-6,16.7,16.7,0,0,1,8.31-2.16A22.21,22.21,0,0,1,191,22.18Zm-4.54,25.49H191v-19a12,12,0,0,0-5.55-1.37A9.1,9.1,0,0,0,178.51,30a9.86,9.86,0,0,0-2.58,7.1Q175.93,47.67,186.44,47.67Z"/><path class="cls-6" d="M223.43,33.82v8.3H205.22v-8.3Z"/><path class="cls-7" d="M234.88,6.26a4.7,4.7,0,0,1,3.45,1.44,4.7,4.7,0,0,1,1.44,3.45,4.83,4.83,0,0,1-1.42,3.43,4.72,4.72,0,0,1-6.89,0A4.77,4.77,0,0,1,230,11.14a4.63,4.63,0,0,1,1.48-3.46A4.77,4.77,0,0,1,234.88,6.26Zm4.32,15.19V54.28h-8.65V21.45Z"/><path class="cls-8" d="M256.92,12.73h.7v8.72h11.25V28H257.62V43.14A4.92,4.92,0,0,0,259,46.72a4.87,4.87,0,0,0,3.66,1.37,14.79,14.79,0,0,0,7-2.18v6.93a21.75,21.75,0,0,1-8.79,2.07q-5.55,0-8.67-3A10.89,10.89,0,0,1,249,43.7V28h-5.13V26.58Z"/><path class="cls-9" d="M277,50.34a4.89,4.89,0,0,1,9.77,0,4.74,4.74,0,0,1-1.44,3.48,5,5,0,0,1-6.93,0A4.77,4.77,0,0,1,277,50.34Zm.91-8.16V0h7.95V42.19Z"/><path class="cls-10" d="M105.86,5.17V54.28H97.21V5.17ZM129.7,21.45,116.37,37.65l15,16.63h-11L106,37.65"/><polyline class="cls-11" points="111.2 30.3 99.27 18.13 92.54 25.12 109.35 42.29 93.64 26.21 93.63 26.22 110.45 43.42 147.04 7.66 132.5 9.48"/></g></g></svg>