<svg xmlns="http://www.w3.org/2000/svg" viewBox="0 0 396.41 102.18"><defs><style>.cls-1{fill:#f39200;}.cls-2{stroke:#000;stroke-miterlimit:10;}.cls-3{fill:#009640;}</style></defs><title>Fichier 15</title><g id="Calque_2" data-name="Calque 2"><g id="Calque_1-2" data-name="Calque 1"><path class="cls-1" d="M50.33,0,40.92,8.92a8.93,8.93,0,1,1-13.05,12.2l-5.8,5.42A8.93,8.93,0,1,1,9,38.75L0,47.18,24,72.8h0l0,0L32.88,64l-5.15-5.51L18.5,48.57l30-28.07,28,30,19-2.11Z"/><polygon class="cls-2" points="19.13 79.22 19.13 79.22 19.13 79.22 19.13 79.22"/><polygon class="cls-3" points="81.07 58.9 52.91 85.22 39.22 70.59 30.31 79.43 50.17 100.68 30.31 79.43 30.3 79.43 51.56 102.17 99.93 56.95 81.07 58.9"/><path class="cls-1" d="M154,27v7.42H136.54v41.7h-9.49V34.39H109.61V27Z"/><path class="cls-1" d="M163.26,28.06a4.92,4.92,0,0,1,4.89,4.89,4.83,4.83,0,0,1-1.42,3.43,4.72,4.72,0,0,1-6.89,0,4.77,4.77,0,0,1-1.46-3.43,4.63,4.63,0,0,1,1.48-3.46A4.77,4.77,0,0,1,163.26,28.06Zm4.32,15.19V76.08h-8.65V43.25Z"/><path class="cls-1" d="M190.83,42.62a23.77,23.77,0,0,1,10.37,2.21v7.35a17.47,17.47,0,0,0-8.72-2.67,9.57,9.57,0,0,0-10.05,10.23,10,10,0,0,0,2.83,7.42A10.23,10.23,0,0,0,192.8,70a24.4,24.4,0,0,0,9-2.32v7a27.65,27.65,0,0,1-10.51,2.07q-8,0-13-4.57t-5-12.13q0-7.84,4.87-12.62A17.22,17.22,0,0,1,190.83,42.62Z"/><path class="cls-1" d="M215.47,27V76.08h-8.65V27Zm23.84,16.28L226,59.46l15,16.63H230L215.62,59.46l13.54-16.21Z"/><path class="cls-1" d="M257.38,42.62q7.24,0,11.46,4.64t4.22,12.83v1.3H249.82a10.12,10.12,0,0,0,3.29,6.77,11.24,11.24,0,0,0,7.58,2.37,16.86,16.86,0,0,0,6-1.07,26.05,26.05,0,0,0,5.92-3.25v6.43a23.61,23.61,0,0,1-14,4.08q-7.77,0-12.69-4.68T241,59.6a16.94,16.94,0,0,1,4.55-12.23A15.7,15.7,0,0,1,257.38,42.62Zm7.56,13.54a9.5,9.5,0,0,0-2.18-5.61,6.44,6.44,0,0,0-5-2,7.21,7.21,0,0,0-5.26,1.93,9.54,9.54,0,0,0-2.51,5.7Z"/><path class="cls-1" d="M300.59,44V27h8.61V76.08H294q-7.87,0-12.6-4.54t-4.73-12.37a16.54,16.54,0,0,1,2.2-8.44,15.8,15.8,0,0,1,6-6,16.7,16.7,0,0,1,8.31-2.16A22.21,22.21,0,0,1,300.59,44Zm-4.54,25.49h4.54v-19A12,12,0,0,0,295,49.08a9.1,9.1,0,0,0-6.91,2.71,9.86,9.86,0,0,0-2.58,7.1Q285.54,69.47,296.05,69.47Z"/><path class="cls-1" d="M333,55.62v8.3H314.83v-8.3Z"/><path class="cls-3" d="M344.5,28.06a4.92,4.92,0,0,1,4.89,4.89A4.83,4.83,0,0,1,348,36.38a4.72,4.72,0,0,1-6.89,0,4.77,4.77,0,0,1-1.46-3.43,4.63,4.63,0,0,1,1.48-3.46A4.77,4.77,0,0,1,344.5,28.06Zm4.32,15.19V76.08h-8.65V43.25Z"/><path class="cls-3" d="M366.53,34.53h.7v8.72h11.25v6.54H367.24V64.94a4.92,4.92,0,0,0,1.34,3.59,4.87,4.87,0,0,0,3.66,1.37,14.79,14.79,0,0,0,7-2.18v6.93a21.75,21.75,0,0,1-8.79,2.07q-5.55,0-8.67-3a10.89,10.89,0,0,1-3.11-8.19V49.79h-5.13V48.38Z"/><path class="cls-1" d="M386.64,72.15a4.89,4.89,0,0,1,9.77,0A4.74,4.74,0,0,1,395,75.66a5,5,0,0,1-6.93,0A4.77,4.77,0,0,1,386.64,72.15Zm.91-8.16V21.8h7.95V64Z"/></g></g></svg>