<svg xmlns="http://www.w3.org/2000/svg" xmlns:xlink="http://www.w3.org/1999/xlink" viewBox="0 0 155.65 159.14"><defs><style>.cls-1{fill:url(#Dégradé_sans_nom_21);}.cls-2{stroke:#000;stroke-miterlimit:10;}.cls-3{fill:url(#Dégradé_sans_nom_19);}</style><linearGradient id="Dégradé_sans_nom_21" y1="56.7" x2="148.81" y2="56.7" gradientUnits="userSpaceOnUse"><stop offset="0" stop-color="#ffe166"/><stop offset="1" stop-color="#d93726"/></linearGradient><linearGradient id="Dégradé_sans_nom_19" x1="47.2" y1="123.92" x2="155.65" y2="123.92" gradientUnits="userSpaceOnUse"><stop offset="0" stop-color="#72bb71"/><stop offset="1" stop-color="#367721"/></linearGradient></defs><title>Fichier 8</title><g id="Calque_2" data-name="Calque 2"><g id="Calque_1-2" data-name="Calque 1"><path class="cls-1" d="M78.38,0,63.73,13.9a13.92,13.92,0,1,1-20.33,19l-9,8.44A13.92,13.92,0,1,1,14,60.35L0,73.48l37.32,39.92h0l0,0L51.21,99.61l-8-8.58L28.81,75.65,75.57,31.94l43.64,46.68,29.61-3.28Z"/><polygon class="cls-2" points="51.21 99.61 51.21 99.61 51.21 99.61 51.21 99.61"/><polygon class="cls-3" points="126.26 91.73 82.4 132.74 61.09 109.94 47.21 123.71 78.14 156.81 47.21 123.71 47.2 123.72 80.31 159.14 155.65 88.71 126.26 91.73"/></g></g></svg>