<?xml version="1.0" encoding="utf-8"?>
<!-- Generator: Adobe Illustrator 17.0.0, SVG Export Plug-In . SVG Version: 6.00 Build 0)  -->
<!DOCTYPE svg PUBLIC "-//W3C//DTD SVG 1.1//EN" "http://www.w3.org/Graphics/SVG/1.1/DTD/svg11.dtd">
<svg version="1.1" id="Calque_1" xmlns="http://www.w3.org/2000/svg" xmlns:xlink="http://www.w3.org/1999/xlink" x="0px" y="0px"
	 width="350px" height="350px" viewBox="0 0 350 350" enable-background="new 0 0 350 350" xml:space="preserve">
<circle fill="#FFFFFF" cx="174.945" cy="137.856" r="106.109"/>
<g>
	<linearGradient id="SVGID_1_" gradientUnits="userSpaceOnUse" x1="30.2851" y1="194.4822" x2="390.5139" y2="194.4822">
		<stop  offset="0" style="stop-color:#FFAE31"/>
		<stop  offset="1" style="stop-color:#E56A17"/>
	</linearGradient>
	<path fill="url(#SVGID_1_)" d="M231.692,145c-7.238,5-7.793,43.931-16.171,43.931c-8.464,0-8.526-38.931-16.503-43.931h-3.25
		c-7.836,5-7.612,39.08-16.142,39.08c-8.627,0-8.642-37.08-16.47-39.08h-3.266c-7.34,2-7.976,18.569-16.273,18.569
		c-8.208,0-9.142-16.569-15.976-18.569h-4.045c-5.972,0-7.081,5.545-14.776,5.545c-7.505,0-8.928-5.545-14.337-5.545H68.909
		c3.823,55,49.855,98.964,106.116,98.964S277.318,200,281.141,145H231.692z"/>
	<linearGradient id="SVGID_2_" gradientUnits="userSpaceOnUse" x1="29.8927" y1="85.5156" x2="391.0981" y2="85.5156">
		<stop  offset="0" style="stop-color:#FFAE31"/>
		<stop  offset="1" style="stop-color:#E56A17"/>
	</linearGradient>
	<path fill="url(#SVGID_2_)" d="M94.052,140c5.776,0,7.08-5.651,14.768-5.651c7.928,0,8.859,5.651,15.329,5.651h3.281
		c7.034-3,7.907-18.675,16.187-18.675c8.396,0,8.935,18.675,16.527,18.675h2.761c8.08-3,8.003-39.185,16.721-39.185
		c8.621,0,8.306,36.185,16.401,39.185h2.736c8.23-3,8.207-45.485,16.759-45.485c8.443,0,8.943,42.485,16.371,45.485h49.478
		c0.017-1,0.059-1.705,0.059-2.488c0-58.765-47.639-106.481-106.404-106.481S68.621,78.786,68.621,137.551
		c0,0.782,0.042,1.449,0.059,2.449H94.052z"/>
</g>
<g>
	<path fill="#FFFFFF" d="M104.088,290.138c0,9.182-5.77,14.801-15.252,14.801c-9.481,0-15.302-5.619-15.302-14.801v-20.569h5.92
		v20.569c0,5.921,3.663,9.482,9.433,9.482c5.72,0,9.281-3.512,9.281-9.482v-20.569h5.92V290.138z"/>
	<path fill="#FFFFFF" d="M137.751,288.081v16.606h-5.77v-15.001c0-4.014-2.408-6.472-6.422-6.472
		c-4.415,0.05-7.175,3.11-7.576,7.274v14.198h-5.77v-26.69h5.77v5.117c1.907-3.712,5.318-5.318,9.834-5.318
		C134.038,277.796,137.751,281.709,137.751,288.081z"/>
	<path fill="#FFFFFF" d="M144.271,291.393v-3.964h12.342v3.964H144.271z"/>
	<path fill="#FFFFFF" d="M195.946,304.688l-0.05-26.239l-11.088,22.577h-3.863l-11.088-22.577v26.239h-5.568v-35.119h7.023
		l11.59,23.329l11.539-23.329h6.974v35.119H195.946z"/>
	<path fill="#FFFFFF" d="M234.575,304.688h-5.77v-5.218c-1.806,3.713-5.167,5.368-9.532,5.419c-6.121,0-9.783-3.914-9.783-10.285
		v-16.606h5.77v15.001c0,4.014,2.358,6.472,6.221,6.472c4.616-0.101,7.325-3.662,7.325-8.328v-13.145h5.77V304.688z"/>
	<path fill="#FFFFFF" d="M258.205,302.981c-2.107,1.255-4.315,1.957-6.573,1.957c-4.014,0-7.475-2.308-7.475-7.776v-13.848h-3.764
		V279h3.764v-7.325h5.719V279h7.877v4.314h-7.877v12.794c0,2.76,1.054,3.612,2.86,3.612c1.204,0,2.458-0.401,4.014-1.154
		L258.205,302.981z"/>
	<path fill="#FFFFFF" d="M286.701,293.55h-20.169c0.903,4.114,4.064,6.673,8.278,6.673c2.91,0,5.569-1.104,7.526-3.11l3.06,3.261
		c-2.608,2.859-6.422,4.516-11.037,4.516c-8.229,0-13.646-5.469-13.646-13.496c0-8.078,5.569-13.546,13.496-13.596
		C283.591,277.796,287.403,283.917,286.701,293.55z M281.685,289.335c-0.201-4.314-3.061-6.923-7.426-6.923
		c-4.214,0-7.174,2.659-7.826,6.923H281.685z"/>
</g>
</svg>
