<?xml version="1.0" encoding="UTF-8"?>
<svg width="22px" height="26px" viewBox="0 0 22 26" version="1.1" xmlns="http://www.w3.org/2000/svg" xmlns:xlink="http://www.w3.org/1999/xlink">
    <!-- Generator: Sketch 43 (38999) - http://www.bohemiancoding.com/sketch -->
    <title>Shape</title>
    <desc>Created with Sketch.</desc>
    <defs></defs>
    <g id="Page-1" stroke="none" stroke-width="1" fill="none" fill-rule="evenodd">
        <g id="Home-page" transform="translate(-1041.000000, -41.000000)" fill-rule="nonzero" fill="#FFFFFF">
            <g id="Group-10" transform="translate(1041.000000, 32.000000)">
                <path d="M19.2120327,21.8998647 C17.5976968,21.2596828 15.7574624,21.6366919 14.5249232,22.8601135 C13.2923839,24.083535 12.9017218,25.9209195 13.5298999,27.5399642 C14.158078,29.1590088 15.6857427,30.2520958 17.4208888,30.3240761 C19.9215277,30.3995856 21.9921549,28.5005709 21.9921549,26.0318029 C22.0098064,20.4911715 21.9921549,14.9480885 21.9921549,9.40451512 C21.9921549,9.28144446 21.9720517,9.15592219 21.9593033,9 C21.8234843,9.0299096 21.7180652,9.04903214 21.6160784,9.0779611 C16.7761162,10.4670415 11.9567475,11.8659284 7.11433374,13.2373572 C6.67304451,13.3628795 6.68285094,13.613924 6.68285094,13.9532264 L6.68285094,25.9651192 C6.33962598,25.8346937 6.15477483,25.7317262 5.9336399,25.6537651 C4.17779909,25.0457666 2.60680945,25.385069 1.28294177,26.6711819 C0.0323850502,27.9017047 -0.344190465,29.7690534 0.331718322,31.3880734 C1.12672953,33.3305324 3.18998364,34.4338888 5.24692883,34.0165567 C7.30387402,33.5992246 8.77396307,31.7789908 8.74906516,29.6802841 C8.77096618,25.9698589 8.77096618,22.2597606 8.74906516,18.5499892 C8.74661356,18.0650614 8.90204543,17.876778 9.35657333,17.7512557 C11.7302191,17.1084444 14.0930777,16.4200332 16.4593686,15.7409381 L19.8724956,14.7602954 L19.8724956,22.1788576 C19.5783028,22.0606901 19.4057097,21.9827291 19.2120327,21.8998647 Z" id="Shape"></path>
            </g>
        </g>
    </g>
</svg>