<?xml version="1.0"?>
<svg xmlns="http://www.w3.org/2000/svg" xmlns:xlink="http://www.w3.org/1999/xlink" version="1.1" id="Capa_1" x="0px" y="0px" viewBox="0 0 512 512" style="enable-background:new 0 0 512 512;" xml:space="preserve" width="512px" height="512px" class=""><g><g>
	<g>
		<path d="M497,211h-30c-8.284,0-15,6.716-15,15s6.716,15,15,15h30c8.284,0,15-6.716,15-15S505.284,211,497,211z" data-original="#000000" class="active-path" data-old_color="#ffaf00" fill="#ffaf00"/>
	</g>
</g><g>
	<g>
		<path d="M507.606,125.393c-5.857-5.858-15.355-5.858-21.213,0l-30,30c-5.858,5.858-5.858,15.355,0,21.213    c5.857,5.858,15.356,5.859,21.213,0l30-30C513.464,140.748,513.464,131.251,507.606,125.393z" data-original="#000000" class="active-path" data-old_color="#ffaf00" fill="#ffaf00"/>
	</g>
</g><g>
	<g>
		<path d="M507.606,305.394l-30-30c-5.857-5.858-15.355-5.858-21.213,0c-5.858,5.858-5.858,15.355,0,21.213l30,30    c5.857,5.858,15.356,5.858,21.213,0C513.464,320.749,513.464,311.252,507.606,305.394z" data-original="#000000" class="active-path" data-old_color="#ffaf00" fill="#ffaf00"/>
	</g>
</g><g>
	<g>
		<path d="M376,31h-30c-0.024,0-0.048,0.003-0.073,0.004c-2.303,0.012-4.709,0.568-6.912,1.727    c-0.135,0.071-0.267,0.146-0.399,0.222c-0.111,0.063-0.224,0.12-0.334,0.186L191.846,121H105C47.103,121,0,168.103,0,226    c0,52.805,39.184,96.623,90,103.924V436c0,24.813,20.187,45,45,45s45-20.187,45-45V331h11.846l146.437,87.862    c0.108,0.064,0.219,0.12,0.328,0.182c0.138,0.078,0.275,0.156,0.415,0.23c2.215,1.161,4.64,1.726,6.974,1.726h30    c24.813,0,45-20.187,45-45V76C421,51.187,400.813,31,376,31z M30,226c0-41.355,33.645-75,75-75h15v150h-15    C63.645,301,30,267.355,30,226z M150,436c0,8.271-6.729,15-15,15s-15-6.729-15-15V331h30V436z M181,301c-17.977,0-18.997,0-31,0    V151h31V301z M331,379.508l-120-72V144.493l120-72V379.508z M391,376c0,8.271-6.729,15-15,15h-15V61h15c8.271,0,15,6.729,15,15    V376z" data-original="#000000" class="active-path" data-old_color="#ffaf00" fill="#ffaf00"/>
	</g>
</g></g> </svg>
