<?xml version="1.0" encoding="utf-8"?>
<!-- Generator: Adobe Illustrator 17.0.0, SVG Export Plug-In . SVG Version: 6.00 Build 0)  -->
<!DOCTYPE svg PUBLIC "-//W3C//DTD SVG 1.1//EN" "http://www.w3.org/Graphics/SVG/1.1/DTD/svg11.dtd">
<svg version="1.1" id="Calque_1" xmlns="http://www.w3.org/2000/svg" xmlns:xlink="http://www.w3.org/1999/xlink" x="0px" y="0px"
	 width="350px" height="350px" viewBox="0 0 350 350" enable-background="new 0 0 350 350" xml:space="preserve">
<linearGradient id="SVGID_1_" gradientUnits="userSpaceOnUse" x1="83.3281" y1="183.8246" x2="264.6717" y2="183.8246">
	<stop  offset="0" style="stop-color:#FFAE31"/>
	<stop  offset="1" style="stop-color:#E56A17"/>
</linearGradient>
<path fill="url(#SVGID_1_)" d="M262.793,182.781h-12.411c-9.051-3.947-9.461-52.765-19.39-52.765
	c-10.109,0-9.834,50.225-20.044,52.765h-1.751c-10.075-2.519-9.438-45.494-19.632-45.494c-10.502,0-9.939,45.485-20.573,45.485
	c-10.634,0-10.634-21.814-20.986-21.814c-9.87,0-10.61,19.992-19.499,21.801c-10.293-0.144-10.421-6.769-20.661-6.769
	c-9.565,0-10.565,5.898-18.705,6.791h-3.934c-1.038,0-1.879,0.84-1.879,1.879c0,1.038,0.841,1.879,1.879,1.879h3.906
	c8.164,0.887,9.14,6.792,18.733,6.792c10.229,0,10.369-6.61,20.628-6.768c8.918,1.816,9.631,21.799,19.531,21.799
	c10.352,0,10.352-21.814,20.986-21.814c10.634,0,10.07,45.486,20.573,45.486c10.198,0,9.557-42.998,19.641-45.496h1.761
	c10.191,2.514,9.922,51.094,20.025,51.094c9.94,0,10.341-47.274,19.387-51.094h12.415c1.038,0,1.879-0.84,1.879-1.879
	C264.672,183.622,263.83,182.781,262.793,182.781z"/>
</svg>
