<?xml version="1.0" encoding="UTF-8"?>
<svg width="67px" height="42px" viewBox="0 0 67 42" version="1.1" xmlns="http://www.w3.org/2000/svg" xmlns:xlink="http://www.w3.org/1999/xlink">
    <!-- Generator: Sketch 43 (38999) - http://www.bohemiancoding.com/sketch -->
    <title>Group 3 Copy 5</title>
    <desc>Created with Sketch.</desc>
    <defs>
        <polygon id="path-1" points="0 41.9052817 0 0.000261567156 66.4280468 0.000261567156 66.4280468 41.9052817"></polygon>
        <linearGradient x1="4.72831046%" y1="50%" x2="100%" y2="50%" id="linearGradient-3">
            <stop stop-color="#FFAF00" offset="0%"></stop>
            <stop stop-color="#FF9100" offset="100%"></stop>
        </linearGradient>
    </defs>
    <g id="Page-1" stroke="none" stroke-width="1" fill="none" fill-rule="evenodd">
        <g id="Mes-commandes" transform="translate(-683.000000, -26.000000)">
            <g id="Group-8" transform="translate(-1.000000, -1.000000)">
                <g id="Group-3-Copy-5" transform="translate(717.500000, 48.000000) scale(-1, 1) translate(-717.500000, -48.000000) translate(684.000000, 27.000000)">
                    <g id="Page-1">
                        <mask id="mask-2" fill="white">
                            <use xlink:href="#path-1"></use>
                        </mask>
                        <g id="Clip-2"></g>
                        <path d="M65.7362257,20.5916128 C65.7256484,20.5916128 65.7163933,20.597498 65.705816,20.597498 C61.7089212,20.589651 61.5892656,18.6363983 57.5209741,18.6363983 C53.4440886,18.6363983 53.4440886,20.5438768 49.2574637,20.5438768 C45.0708387,20.5438768 45.2909787,2.83381857 41.1592234,2.83381857 C37.0274682,2.83381857 37.4128783,20.598152 33.0609832,20.598152 C28.709088,20.598152 28.929228,-0.000261567156 24.8523424,-0.000261567156 C20.776118,-0.000261567156 20.776118,20.6530811 16.7541022,20.6530811 C12.7327475,20.6530811 12.622347,16.2934105 8.49059173,16.2934105 C4.36941379,16.2934105 4.57633209,20.6838152 0.585387081,20.7053945 C0.582742758,20.7053945 0.580759515,20.7040867 0.578115192,20.7040867 C0.572826545,20.7040867 0.56886006,20.7067023 0.563571413,20.7067023 C0.561588171,20.7067023 0.559604928,20.7073563 0.557621686,20.7073563 L0.557621686,20.7080102 C0.248235854,20.7197807 -0.000330540419,20.9676156 -0.000330540419,21.2762648 C-0.000330540419,21.5849141 0.248235854,21.8327489 0.557621686,21.8445195 L0.557621686,21.8517126 C4.5796375,21.8517126 4.3588365,26.2656583 8.49059173,26.2656583 C12.622347,26.2656583 12.7327475,21.9059877 16.7541022,21.9059877 C20.776118,21.9059877 20.776118,41.9054125 24.8523424,41.9054125 C28.929228,41.9054125 28.709088,21.9609168 33.0609832,21.9609168 C37.4128783,21.9609168 37.0274682,39.7252502 41.1592234,39.7252502 C45.2909787,39.7252502 45.0708387,22.015192 49.2574637,22.015192 C53.4440886,22.015192 53.4440886,23.9226705 57.5209741,23.9226705 C61.5978597,23.9226705 61.7075991,21.9609168 65.7296149,21.9609168 L65.7296149,21.959609 C65.7315981,21.959609 65.7335814,21.9609168 65.7362257,21.9609168 C66.1183304,21.9609168 66.4283773,21.6542294 66.4283773,21.2762648 C66.4283773,20.8983003 66.1183304,20.5916128 65.7362257,20.5916128" id="Fill-1" fill="url(#linearGradient-3)" mask="url(#mask-2)"></path>
                    </g>
                </g>
            </g>
        </g>
    </g>
</svg>