<svg xmlns="http://www.w3.org/2000/svg" xmlns:xlink="http://www.w3.org/1999/xlink" width="150" height="45"><defs><path id="A" d="M14.887.052H0v43.75h14.887V.052z"/><path id="B" d="M14.935.052H.048v43.75h14.887V.052z"/></defs><g fill="none"><g transform="translate(0 .087)"><mask id="C" fill="#fff"><use xlink:href="#A"/></mask><path d="M0 11.633V3.85c0-2.1 1.7-3.8 3.8-3.8s3.8 1.7 3.8 3.8v7.78h3.488c2.1 0 3.8 1.7 3.8 3.8s-1.7 3.8-3.8 3.8H7.6v15.072c.127.507 0 1.266.443 1.646.317.317.887.253 1.33.253 2.1 0 3.8 1.7 3.8 3.8a3.77 3.77 0 0 1-3.8 3.8c-.57 0-1.077 0-1.647-.063-2.1-.317-4.116-1.203-5.573-2.85C.887 39.433 0 37.154 0 35.2V11.633z" mask="url(#C)" fill="#EC5554"/></g><path d="M39.578 27.994c0-4.37-3.6-7.916-7.916-7.916-4.37 0-7.98 3.546-7.98 7.916s3.6 7.853 7.98 7.853c4.306 0 7.916-3.483 7.916-7.853m8.802-11.97V40.28c0 1.963-1.583 3.6-3.673 3.6s-3.356-1.647-3.356-3.6v-.76c-2.723 2.343-5.9 3.736-9.7 3.736-8.486 0-15.325-6.84-15.325-15.262A15.35 15.35 0 0 1 31.66 12.67c3.8 0 6.966 1.457 9.7 3.673v-.317c0-1.963 1.267-3.6 3.356-3.6s3.673 1.647 3.673 3.6M70.225 43.9a15.78 15.78 0 0 1-11.019-4.433 16.12 16.12 0 0 1-4.876-11.146c-.063-4.18 1.457-8.233 4.496-11.272 2.913-3.04 6.84-4.75 11.082-4.876a15.63 15.63 0 0 1 11.272 4.496c1.52 1.393 1.583 3.863.127 5.32-1.457 1.52-3.863 1.583-5.383.127-1.583-1.52-3.673-2.343-5.9-2.343s-4.243.95-5.826 2.533c-1.457 1.583-2.343 3.673-2.28 5.9 0 2.153.95 4.306 2.533 5.763 1.583 1.583 3.673 2.407 5.826 2.343 2.1 0 4.053-.823 5.573-2.216 1.457-1.457 3.926-1.33 5.32.2 1.457 1.52 1.33 3.926-.2 5.383a15.77 15.77 0 0 1-10.512 4.243h-.253zm21.593.18c-2.216 0-4-1.773-4-3.926V15.7c0-2.153 1.773-3.863 4-3.863a3.88 3.88 0 0 1 3.863 3.863v24.444c0 2.153-1.773 3.926-3.863 3.926" fill="#EC5554"/><g transform="translate(102.493 .087)"><mask id="D" fill="#fff"><use xlink:href="#B"/></mask><path d="M.048 11.633V3.85c0-2.1 1.7-3.8 3.8-3.8s3.8 1.7 3.8 3.8v7.78h2.1c2.1 0 5.198 1.7 5.198 3.8s-1.7 3.8-3.8 3.8H7.647v15.072c.127.507 0 1.266.443 1.646.317.317.887.253 1.33.253 2.1 0 3.8 1.7 3.8 3.8a3.77 3.77 0 0 1-3.8 3.8c-.57 0-1.077 0-1.647-.063-2.1-.317-4.116-1.203-5.573-2.85C.935 39.433.048 37.154.048 35.2V11.633z" mask="url(#D)" fill="#EC5554"/></g><path d="M127.942 23.94h13.425c-1.266-2.406-3.6-3.8-6.46-3.8-2.913 0-5.446 1.457-6.966 3.8m18.428 6.396h-19.505c.887 3.6 4.116 6.396 8.043 6.396 2.027 0 5.003-.823 6.65-2.407 1.52-1.457 3.926-1.457 5.383.063 1.52 1.457 1.457 3.926-.063 5.383-3.483 3.356-8.36 4.496-11.97 4.496-8.802 0-15.832-7.093-15.832-15.895 0-8.676 7.03-15.895 15.832-15.895.95 0 1.837.063 2.786.253 4.306.823 7.98 3.483 10.26 7.283 1.013 1.773 2.153 4.116 2.026 6.206 0 .57-.253 1.203-.507 1.836-.507 1.203-1.583 2.28-3.103 2.28" fill="#EC5554"/></g></svg>