<svg xmlns="http://www.w3.org/2000/svg" xmlns:xlink="http://www.w3.org/1999/xlink" viewBox="0 0 170.43 164.64"><defs><style>.cls-1,.cls-3,.cls-4,.cls-5{fill:none;stroke-miterlimit:10;stroke-width:13px;}.cls-1{stroke:url(#Dégradé_sans_nom_52);}.cls-2{fill:url(#Dégradé_sans_nom_19);}.cls-3{stroke:url(#Dégradé_sans_nom_52-2);}.cls-4{stroke:url(#Dégradé_sans_nom_52-3);}.cls-5{stroke:url(#Dégradé_sans_nom_52-4);}.cls-6{fill:url(#Dégradé_sans_nom_19-2);}</style><linearGradient id="Dégradé_sans_nom_52" x1="-2320.75" y1="36.05" x2="-2248.66" y2="36.05" gradientTransform="matrix(1, 0, 0, -1, 2320.78, 72.1)" gradientUnits="userSpaceOnUse"><stop offset="0" stop-color="#f6a75b"/><stop offset="0" stop-color="#e5902a"/><stop offset="1" stop-color="#e1752a"/></linearGradient><linearGradient id="Dégradé_sans_nom_19" x1="11.88" y1="38.79" x2="77.85" y2="38.79" gradientUnits="userSpaceOnUse"><stop offset="0" stop-color="#72bb71"/><stop offset="1" stop-color="#367721"/></linearGradient><linearGradient id="Dégradé_sans_nom_52-2" x1="92.61" y1="36.05" x2="164.71" y2="36.05" gradientTransform="matrix(1, 0, 0, 1, 0, 0)" xlink:href="#Dégradé_sans_nom_52"/><linearGradient id="Dégradé_sans_nom_52-3" x1="-2320.83" y1="128.59" x2="-2248.74" y2="128.59" gradientTransform="matrix(1, 0, 0, -1, 2320.83, 257.18)" xlink:href="#Dégradé_sans_nom_52"/><linearGradient id="Dégradé_sans_nom_52-4" x1="-916.04" y1="128.59" x2="-843.94" y2="128.59" gradientTransform="translate(1008.65)" xlink:href="#Dégradé_sans_nom_52"/><linearGradient id="Dégradé_sans_nom_19-2" x1="104.46" y1="131.33" x2="170.43" y2="131.33" xlink:href="#Dégradé_sans_nom_19"/></defs><title>Fichier 25</title><g id="Calque_2" data-name="Calque 2"><g id="Calque_1-2" data-name="Calque 1"><rect class="cls-1" x="6.53" y="6.5" width="59.1" height="59.1" transform="translate(72.16 72.1) rotate(-180)"/><polygon class="cls-2" points="59.98 19.55 33.3 44.06 20.33 30.43 11.89 38.67 30.71 58.45 11.89 38.67 11.88 38.67 32.02 59.85 77.85 17.74 59.98 19.55"/><rect class="cls-3" x="99.11" y="6.5" width="59.1" height="59.1"/><rect class="cls-4" x="6.5" y="99.04" width="59.1" height="59.1" transform="translate(72.1 257.18) rotate(-180)"/><rect class="cls-5" x="99.11" y="99.04" width="59.1" height="59.1"/><polygon class="cls-6" points="152.56 112.09 125.88 136.6 112.91 122.97 104.47 131.21 123.29 150.99 104.47 131.21 104.46 131.21 124.6 152.39 170.43 110.28 152.56 112.09"/></g></g></svg>