<svg xmlns="http://www.w3.org/2000/svg" xmlns:xlink="http://www.w3.org/1999/xlink" viewBox="0 0 155.65 159.14"><defs><style>.cls-1{fill:url(#Dégradé_sans_nom_52);}.cls-2{fill:url(#Dégradé_sans_nom_61);}</style><linearGradient id="Dégradé_sans_nom_52" y1="56.7" x2="148.81" y2="56.7" gradientUnits="userSpaceOnUse"><stop offset="0" stop-color="#f6a75b"/><stop offset="0" stop-color="#e5902a"/><stop offset="1" stop-color="#e1752a"/></linearGradient><linearGradient id="Dégradé_sans_nom_61" x1="47.2" y1="123.92" x2="155.65" y2="123.92" gradientUnits="userSpaceOnUse"><stop offset="0" stop-color="#e6d3c2"/><stop offset="0.23" stop-color="#ccb9a9"/><stop offset="0.53" stop-color="#b19e8f"/><stop offset="0.8" stop-color="#a18e7f"/><stop offset="1" stop-color="#9b8879"/></linearGradient></defs><title>Fichier 24</title><g id="Calque_2" data-name="Calque 2"><g id="Calque_1-2" data-name="Calque 1"><path class="cls-1" d="M78.38,0,63.73,13.9a13.91,13.91,0,1,1-20.33,19l-9,8.44A13.92,13.92,0,1,1,14,60.35L0,73.48l37.32,39.91h0l0,0L51.21,99.61l-8-8.58L28.81,75.65,75.57,31.94l43.64,46.67,29.6-3.28Z"/><polygon class="cls-2" points="126.26 91.73 82.4 132.74 61.09 109.94 47.21 123.71 78.14 156.81 47.21 123.71 47.2 123.72 80.31 159.14 155.65 88.71 126.26 91.73"/></g></g></svg>