<svg xmlns="http://www.w3.org/2000/svg" xmlns:xlink="http://www.w3.org/1999/xlink" viewBox="0 0 155.65 159.14"><defs><style>.cls-1{fill:url(#Dégradé_sans_nom_52);}.cls-2{fill:#fff;}.cls-3{fill:url(#Dégradé_sans_nom_52-2);}.cls-4{fill:url(#Dégradé_sans_nom_52-3);}.cls-5{fill:url(#Dégradé_sans_nom_61);}</style><linearGradient id="Dégradé_sans_nom_52" x1="4.95" y1="37.71" x2="74.65" y2="37.71" gradientUnits="userSpaceOnUse"><stop offset="0" stop-color="#f6a75b"/><stop offset="0" stop-color="#e5902a"/><stop offset="1" stop-color="#e1752a"/></linearGradient><linearGradient id="Dégradé_sans_nom_52-2" x1="67.69" y1="81.75" x2="87.01" y2="81.75" xlink:href="#Dégradé_sans_nom_52"/><linearGradient id="Dégradé_sans_nom_52-3" x1="0" y1="56.7" x2="148.81" y2="56.7" xlink:href="#Dégradé_sans_nom_52"/><linearGradient id="Dégradé_sans_nom_61" x1="47.2" y1="123.92" x2="155.65" y2="123.92" gradientUnits="userSpaceOnUse"><stop offset="0" stop-color="#e6d3c2"/><stop offset="0.23" stop-color="#ccb9a9"/><stop offset="0.53" stop-color="#b19e8f"/><stop offset="0.8" stop-color="#a18e7f"/><stop offset="1" stop-color="#9b8879"/></linearGradient></defs><title>Fichier 27</title><g id="Calque_2" data-name="Calque 2"><g id="Calque_1-2" data-name="Calque 1"><g id="Calque_2-2" data-name="Calque 2"><path class="cls-1" d="M16.34,72.06A40.54,40.54,0,0,1,74.65,15.73"/><path class="cls-2" d="M28.71,55.86A20.74,20.74,0,1,1,58.54,27.05"/></g><path class="cls-3" d="M87,73.18a9.66,9.66,0,1,0-15,8.37l.48,12.63a5.65,5.65,0,0,0,11.3-.43l-.47-12.58A9.66,9.66,0,0,0,87,73.18Z"/><polygon class="cls-4" points="14.04 60.35 0 73.48 37.32 113.39 37.32 113.39 37.29 113.35 51.21 99.61 43.19 91.03 28.81 75.65 75.57 31.94 119.2 78.61 148.81 75.33 78.38 0 63.73 13.9 14.04 60.35"/><polygon class="cls-5" points="126.26 91.73 82.4 132.74 61.09 109.94 47.21 123.71 78.14 156.81 47.21 123.71 47.2 123.72 80.31 159.14 155.65 88.71 126.26 91.73"/></g></g></svg>