<svg version="1" xmlns="http://www.w3.org/2000/svg" width="348" height="348" viewBox="0 0 261.000000 261.000000"><path d="M128.5 3.3c-1.7 1.2-6.9 6.1-11.8 10.9l-8.7 8.9 2.5 4.9c4.6 9 3.1 19.4-3.8 26.5-4.3 4.5-9.3 6.5-15.9 6.5-5.2 0-12.9-2.7-14.2-4.9-1.4-2.2-3.7-1-10.7 5.9-4 3.8-6.8 7-6.2 7 .5 0 1.9 2 3.1 4.4 2.6 5 2.9 13.9.8 18.9-3.2 7.8-12.1 13.7-20.4 13.7-4.7 0-11.1-1.6-12.2-3-.3-.3-1.5-1.3-2.8-2.2-2.5-1.7-2-2.1-20.8 15.9L3 120.8l7.3 7.6c3.9 4.2 9.9 10.6 13.2 14.2 3.3 3.6 9.7 10.4 14.3 15 4.5 4.7 8.2 8.7 8.2 9.1 0 .3 2.9 3.5 6.5 7s7.2 7.4 8.1 8.8c.9 1.4 2.3 2.5 3.1 2.5.8 0 4.7-3.4 8.8-7.5 4.1-4.1 7.9-7.5 8.4-7.5s1.2-.8 1.6-1.8c.3-1.1 1.7-2.4 3.1-3.1l2.6-1.1-5.8-6c-3.3-3.3-9.1-9.5-13.1-13.7-4-4.3-9.5-10.2-12.3-13.1-2.7-2.9-5-5.9-5-6.6 0-1.4 3.4-4.9 17.6-18.1 4.7-4.4 12.1-11.4 16.5-15.5 4.3-4.1 11.1-10.5 15.1-14.3 4-3.7 11.1-10.3 15.8-14.7 4.6-4.4 9-8 9.7-8 .7 0 1.8.7 2.5 1.6.7.9 4.2 4.7 7.8 8.4 3.6 3.8 10.3 11 15 16.1 4.7 5.1 11.3 12.1 14.8 15.6 3.4 3.4 6.2 6.5 6.2 6.8 0 .3 3.5 4.1 7.8 8.5 4.2 4.4 9.7 10.2 12.2 13l4.5 5.1 6-.6c3.3-.3 9.4-1 13.5-1.5s10-1.2 13-1.5c16.4-1.7 17.2-2.1 12.8-6.2-1.3-1.2-5.9-6-10.3-10.8-4.4-4.8-11.1-12-15-16.1-3.8-4-10.1-10.8-14-15-3.8-4.2-10.5-11.2-14.7-15.5-4.3-4.4-7.8-8.1-7.8-8.4 0-.3-2.8-3.4-6.2-7-3.5-3.5-9.9-10.3-14.3-15-4.4-4.8-11.7-12.4-16.1-17-4.5-4.6-8-8.6-7.7-8.8.2-.3-.9-1.4-2.4-2.5l-2.8-2-3 2.1zM254.9 145.5c-.3.2-3.6.7-7.4 1-3.9.3-8.1.8-9.5 1-1.4.2-6.8.7-12 1.1-5.2.4-9.8.9-10.2 1-.5.1-2 .2-3.4.3-2.4.1-4.2 1.6-14.9 11.6-2.3 2.2-8.4 7.8-13.4 12.5-10.9 10-26.2 24.5-33.5 31.5-6.3 6.2-11.5 10.5-12.6 10.5-.9 0-6.1-5.2-18-18-4.7-5-10.4-11.2-12.8-13.6l-4.2-4.5-11.5 11.6L80 203l6.7 7.1c3.8 3.8 10.1 10.4 14.1 14.5 3.9 4.1 7.2 7.7 7.2 7.9 0 .5 6.3 7.3 20.7 22.1l6.2 6.3 8-7.7c4.5-4.2 11.9-11.3 16.6-15.7 4.7-4.4 12.4-11.6 17.1-16 4.7-4.4 11-10.3 13.9-13 2.9-2.8 9.2-8.6 14.1-13 4.8-4.4 11.8-11 15.6-14.8 3.8-3.7 7.1-6.7 7.4-6.7.2 0 4-3.5 8.4-7.8 4.4-4.2 10.4-10 13.4-12.7 5.1-4.7 7.1-7.3 6.3-8.1-.2-.2-.6-.2-.8.1z"/></svg>