<svg version="1" xmlns="http://www.w3.org/2000/svg" width="213.333" height="213.333" viewBox="0 0 160.000000 160.000000"><path d="M73.2 7.7l-7.1 6.5 1.9 3.9c3.6 6.9.4 15.6-6.6 18.5-4.5 1.9-7.3 1.8-11.9-.6l-3.8-2-4.4 3.6c-3.2 2.6-4.2 4.1-3.7 5.3 2.7 6.3 3.1 8.6 2.2 12-2.5 9-12.3 13-20.2 8.3l-3.5-2.1-7 6.7L2 74.5l7.8 8.1C14 87 22.5 96 28.7 102.6l11.2 11.9 6.9-7 7-7.1-10.9-11.7C36.9 82.3 32 76.8 32 76.5c0-.4 9-9.1 17-16.5 1.9-1.7 6-5.5 9-8.4 3-2.9 8.7-8.2 12.7-11.9l7.2-6.7 5.8 6.2c3.2 3.4 7.2 7.6 8.8 9.3 20.7 22.1 26.2 28 27.5 29.4 1.3 1.6 2.4 1.7 8 1 3.6-.4 9.4-1.1 13-1.5 10.7-1.1 10.7-1.1 4.2-8-3.1-3.4-10.6-11.4-16.7-17.9-6-6.5-12.8-13.7-15-16-22.1-23.6-27.2-29-28.3-30.6-3.1-4.5-4.5-4.2-12 2.8zM149 90.2c-3.6.4-9 1-12 1.4-3 .3-6.2.7-7.1.8-.9 0-5.6 3.9-10.5 8.5S108 111.5 105 114.4c-3 2.8-8.8 8.2-12.8 12l-7.2 7-5.6-6c-3.1-3.2-7.3-7.7-9.3-9.9-7.1-7.6-6.4-7.6-13.7-.2-3.6 3.7-6.4 7.1-6.2 7.6.1.5 5.1 6 10.9 12.3 5.9 6.2 13.2 14 16.2 17.2l5.5 5.9 2.4-2.4c1.4-1.3 8.3-7.8 15.3-14.4 7.1-6.6 13.6-12.7 14.5-13.5.8-.8 10.9-10.2 22.3-20.9C148.7 98.5 158 89.7 158 89.5c0-.3-1.9-.1-9 .7z"/></svg>